<?xml version="1.0" encoding="UTF-8" standalone="no"?>
<!-- Generator: Adobe Illustrator 19.0.0, SVG Export Plug-In . SVG Version: 6.00 Build 0)  -->

<svg
   xmlns:dc="http://purl.org/dc/elements/1.1/"
   xmlns:cc="http://creativecommons.org/ns#"
   xmlns:rdf="http://www.w3.org/1999/02/22-rdf-syntax-ns#"
   xmlns:svg="http://www.w3.org/2000/svg"
   xmlns="http://www.w3.org/2000/svg"
   xmlns:sodipodi="http://sodipodi.sourceforge.net/DTD/sodipodi-0.dtd"
   xmlns:inkscape="http://www.inkscape.org/namespaces/inkscape"
   version="1.1"
   id="Layer_1"
   x="0px"
   y="0px"
   viewBox="0 0 131.30001 39.299999"
   xml:space="preserve"
   inkscape:version="0.91 r13725"
   sodipodi:docname="logo.svg"
   width="131.3"
   height="39.299999"><metadata
     id="metadata263"><rdf:RDF><cc:Work
         rdf:about=""><dc:format>image/svg+xml</dc:format><dc:type
           rdf:resource="http://purl.org/dc/dcmitype/StillImage" /><dc:title></dc:title></cc:Work></rdf:RDF></metadata><defs
     id="defs261" /><sodipodi:namedview
     pagecolor="#ffffff"
     bordercolor="#666666"
     borderopacity="1"
     objecttolerance="10"
     gridtolerance="10"
     guidetolerance="10"
     inkscape:pageopacity="0"
     inkscape:pageshadow="2"
     inkscape:window-width="1600"
     inkscape:window-height="754"
     id="namedview259"
     showgrid="false"
     inkscape:zoom="1.8794559"
     inkscape:cx="62.441194"
     inkscape:cy="27.911506"
     inkscape:window-x="59"
     inkscape:window-y="34"
     inkscape:window-maximized="0"
     inkscape:current-layer="Layer_1"
     fit-margin-top="1"
     fit-margin-left="1"
     fit-margin-right="1"
     fit-margin-bottom="1" /><style
     type="text/css"
     id="style3">
	.st0{fill:#3F3F3F;}
	.st1{clip-path:url(#SVGID_2_);fill:#47005C;}
	.st2{clip-path:url(#SVGID_2_);fill:#48005D;}
	.st3{clip-path:url(#SVGID_2_);fill:#49015E;}
	.st4{clip-path:url(#SVGID_2_);fill:#4A015E;}
	.st5{clip-path:url(#SVGID_2_);fill:#4B025F;}
	.st6{clip-path:url(#SVGID_2_);fill:#4C0260;}
	.st7{clip-path:url(#SVGID_2_);fill:#4D0261;}
	.st8{clip-path:url(#SVGID_2_);fill:#4E0362;}
	.st9{clip-path:url(#SVGID_2_);fill:#4F0362;}
	.st10{clip-path:url(#SVGID_2_);fill:#500463;}
	.st11{clip-path:url(#SVGID_2_);fill:#510464;}
	.st12{clip-path:url(#SVGID_2_);fill:#520565;}
	.st13{clip-path:url(#SVGID_2_);fill:#530566;}
	.st14{clip-path:url(#SVGID_2_);fill:#540566;}
	.st15{clip-path:url(#SVGID_2_);fill:#550667;}
	.st16{clip-path:url(#SVGID_2_);fill:#560668;}
	.st17{clip-path:url(#SVGID_2_);fill:#570769;}
	.st18{clip-path:url(#SVGID_2_);fill:#58076A;}
	.st19{clip-path:url(#SVGID_2_);fill:#59076A;}
	.st20{clip-path:url(#SVGID_2_);fill:#5A086B;}
	.st21{clip-path:url(#SVGID_2_);fill:#5B086C;}
	.st22{clip-path:url(#SVGID_2_);fill:#5C096D;}
	.st23{clip-path:url(#SVGID_2_);fill:#5D096D;}
	.st24{clip-path:url(#SVGID_2_);fill:#5E096E;}
	.st25{clip-path:url(#SVGID_2_);fill:#5F0A6F;}
	.st26{clip-path:url(#SVGID_2_);fill:#600A70;}
	.st27{clip-path:url(#SVGID_2_);fill:#610B71;}
	.st28{clip-path:url(#SVGID_2_);fill:#620B71;}
	.st29{clip-path:url(#SVGID_2_);fill:#630B72;}
	.st30{clip-path:url(#SVGID_2_);fill:#640C73;}
	.st31{clip-path:url(#SVGID_2_);fill:#650C74;}
	.st32{clip-path:url(#SVGID_2_);fill:#660D75;}
	.st33{clip-path:url(#SVGID_2_);fill:#670D75;}
	.st34{clip-path:url(#SVGID_2_);fill:#680E76;}
	.st35{clip-path:url(#SVGID_2_);fill:#690E77;}
	.st36{clip-path:url(#SVGID_2_);fill:#6A0E78;}
	.st37{clip-path:url(#SVGID_2_);fill:#6B0F79;}
	.st38{clip-path:url(#SVGID_2_);fill:#6C0F79;}
	.st39{clip-path:url(#SVGID_2_);fill:#6D107A;}
	.st40{clip-path:url(#SVGID_2_);fill:#6F107B;}
	.st41{clip-path:url(#SVGID_2_);fill:#70107C;}
	.st42{clip-path:url(#SVGID_2_);fill:#71117D;}
	.st43{clip-path:url(#SVGID_2_);fill:#72117D;}
	.st44{clip-path:url(#SVGID_2_);fill:#73127E;}
	.st45{clip-path:url(#SVGID_2_);fill:#74127F;}
	.st46{clip-path:url(#SVGID_2_);fill:#751280;}
	.st47{clip-path:url(#SVGID_2_);fill:#761381;}
	.st48{clip-path:url(#SVGID_2_);fill:#771381;}
	.st49{clip-path:url(#SVGID_2_);fill:#781482;}
	.st50{clip-path:url(#SVGID_2_);fill:#791483;}
	.st51{clip-path:url(#SVGID_2_);fill:#7A1584;}
	.st52{clip-path:url(#SVGID_2_);fill:#7B1585;}
	.st53{clip-path:url(#SVGID_2_);fill:#7C1585;}
	.st54{clip-path:url(#SVGID_2_);fill:#7D1686;}
	.st55{clip-path:url(#SVGID_2_);fill:#7E1687;}
	.st56{clip-path:url(#SVGID_2_);fill:#7F1788;}
	.st57{clip-path:url(#SVGID_2_);fill:#801789;}
	.st58{clip-path:url(#SVGID_2_);fill:#811789;}
	.st59{clip-path:url(#SVGID_2_);fill:#82188A;}
	.st60{clip-path:url(#SVGID_2_);fill:#83188B;}
	.st61{clip-path:url(#SVGID_2_);fill:#84198C;}
	.st62{clip-path:url(#SVGID_2_);fill:#85198C;}
	.st63{clip-path:url(#SVGID_2_);fill:#86198D;}
	.st64{clip-path:url(#SVGID_2_);fill:#871A8E;}
	.st65{clip-path:url(#SVGID_2_);fill:#881A8F;}
	.st66{clip-path:url(#SVGID_2_);fill:#891B90;}
	.st67{clip-path:url(#SVGID_2_);fill:#8A1B90;}
	.st68{clip-path:url(#SVGID_2_);fill:#8B1B91;}
	.st69{clip-path:url(#SVGID_2_);fill:#8C1C92;}
	.st70{clip-path:url(#SVGID_2_);fill:#8D1C93;}
	.st71{clip-path:url(#SVGID_2_);fill:#8E1D94;}
	.st72{clip-path:url(#SVGID_2_);fill:#8F1D94;}
	.st73{clip-path:url(#SVGID_2_);fill:#901E95;}
	.st74{clip-path:url(#SVGID_2_);fill:#911E96;}
	.st75{clip-path:url(#SVGID_2_);fill:#921E97;}
	.st76{clip-path:url(#SVGID_2_);fill:#931F98;}
	.st77{clip-path:url(#SVGID_2_);fill:#941F98;}
	.st78{clip-path:url(#SVGID_2_);fill:#952099;}
	.st79{clip-path:url(#SVGID_2_);fill:#96209A;}
	.st80{fill:#B7209A;}
</style><g
     id="g185"
     transform="translate(-46.6,-38.6)"><g
       id="g187"><path
         class="st0"
         d="m 56.6,66.4 c 0,0.5 0,1 0,1.5 0,0.4 0,0.8 0,1.2 0,0.4 0,0.7 0.1,1 0,0.3 0.1,0.6 0.1,1 l -1.3,0 C 55.4,70.6 55.4,70 55.4,69.3 l 0,0 c -0.4,0.7 -0.9,1.3 -1.6,1.6 -0.6,0.3 -1.4,0.5 -2.3,0.5 -0.5,0 -1,-0.1 -1.4,-0.2 -0.5,-0.1 -0.9,-0.3 -1.3,-0.6 -0.4,-0.3 -0.7,-0.6 -0.9,-1 -0.2,-0.4 -0.3,-0.9 -0.3,-1.5 0,-0.9 0.2,-1.5 0.7,-2 0.4,-0.5 1,-0.9 1.6,-1.1 0.6,-0.2 1.3,-0.4 2,-0.5 0.7,-0.1 1.3,-0.1 1.9,-0.1 l 1.7,0 0,-0.7 c 0,-1 -0.3,-1.7 -0.9,-2.1 C 53.8,61.2 53,61 52.1,61 c -1.3,0 -2.4,0.4 -3.4,1.3 l -0.8,-1 c 0.5,-0.5 1.2,-0.9 2,-1.2 0.8,-0.3 1.5,-0.4 2.3,-0.4 1.4,0 2.4,0.3 3.2,1 0.8,0.6 1.2,1.7 1.2,3.1 l 0,2.6 z m -2.9,-0.9 c -0.6,0 -1.2,0 -1.8,0.1 -0.6,0.1 -1.1,0.2 -1.5,0.4 -0.5,0.2 -0.8,0.5 -1.1,0.8 -0.3,0.3 -0.4,0.7 -0.4,1.2 0,0.3 0.1,0.6 0.2,0.9 0.2,0.3 0.3,0.5 0.6,0.7 0.2,0.2 0.5,0.3 0.8,0.4 0.3,0.1 0.6,0.1 0.9,0.1 0.8,0 1.4,-0.1 1.9,-0.3 0.5,-0.2 0.9,-0.5 1.2,-0.9 0.3,-0.4 0.5,-0.8 0.6,-1.2 0.1,-0.5 0.2,-0.9 0.2,-1.4 l 0,-0.7 -1.6,0 z"
         id="path189"
         inkscape:connector-curvature="0"
         style="fill:#3f3f3f" /></g><g
       id="g191"><path
         class="st0"
         d="m 61.6,68.3 c 0.3,0.6 0.8,1 1.3,1.4 0.6,0.3 1.2,0.5 1.9,0.5 0.3,0 0.6,0 0.9,-0.1 0.3,-0.1 0.6,-0.2 0.8,-0.4 0.2,-0.2 0.4,-0.4 0.6,-0.6 0.2,-0.2 0.2,-0.5 0.2,-0.9 0,-0.5 -0.2,-0.9 -0.5,-1.2 C 66.5,66.7 66.1,66.5 65.6,66.4 65.1,66.3 64.6,66.1 64,66 63.4,65.9 62.9,65.7 62.4,65.5 61.9,65.3 61.5,65 61.2,64.6 60.9,64.2 60.7,63.7 60.7,63 c 0,-0.5 0.1,-1 0.3,-1.4 0.2,-0.4 0.5,-0.7 0.9,-1 0.4,-0.3 0.8,-0.5 1.2,-0.6 0.4,-0.1 0.9,-0.2 1.4,-0.2 0.9,0 1.7,0.2 2.4,0.5 0.7,0.3 1.2,0.9 1.6,1.6 l -1.3,0.8 c -0.3,-0.5 -0.6,-0.9 -1,-1.2 -0.4,-0.3 -0.9,-0.4 -1.6,-0.4 -0.3,0 -0.5,0 -0.8,0.1 -0.3,0.1 -0.5,0.2 -0.8,0.3 -0.2,0.1 -0.4,0.3 -0.6,0.6 -0.2,0.2 -0.2,0.5 -0.2,0.8 0,0.5 0.2,0.9 0.5,1.1 0.3,0.2 0.7,0.4 1.2,0.6 0.5,0.1 1,0.3 1.6,0.3 0.6,0.1 1.1,0.3 1.6,0.5 0.5,0.2 0.9,0.5 1.2,0.9 0.3,0.4 0.5,1 0.5,1.7 0,0.6 -0.1,1.1 -0.3,1.5 -0.2,0.4 -0.5,0.8 -0.9,1.1 -0.4,0.3 -0.8,0.5 -1.3,0.7 -0.5,0.1 -1,0.2 -1.5,0.2 -1,0 -1.8,-0.2 -2.6,-0.6 -0.8,-0.4 -1.4,-0.9 -1.8,-1.7 l 1.2,-0.9 z"
         id="path193"
         inkscape:connector-curvature="0"
         style="fill:#3f3f3f" /></g><g
       id="g195"><path
         class="st0"
         d="m 82.9,69 c -0.6,0.9 -1.3,1.5 -2.1,1.8 -0.8,0.4 -1.7,0.6 -2.7,0.6 -0.9,0 -1.6,-0.1 -2.3,-0.4 -0.7,-0.3 -1.3,-0.7 -1.8,-1.2 -0.5,-0.5 -0.9,-1.1 -1.1,-1.9 -0.3,-0.7 -0.4,-1.5 -0.4,-2.4 0,-0.8 0.1,-1.6 0.4,-2.3 0.3,-0.7 0.7,-1.3 1.2,-1.8 0.5,-0.5 1.1,-0.9 1.8,-1.2 0.7,-0.3 1.4,-0.4 2.2,-0.4 0.9,0 1.6,0.1 2.3,0.4 0.7,0.3 1.2,0.7 1.6,1.2 0.4,0.5 0.8,1 1,1.7 0.2,0.6 0.3,1.3 0.3,1.9 l 0,1 -9.4,0 c 0,0.3 0.1,0.7 0.2,1.2 0.1,0.5 0.3,0.9 0.7,1.4 0.3,0.4 0.8,0.8 1.3,1.2 0.5,0.3 1.2,0.5 2.1,0.5 0.7,0 1.5,-0.2 2.1,-0.5 0.7,-0.4 1.2,-0.8 1.6,-1.4 l 1,0.6 z m -1.1,-4.4 c 0,-0.5 -0.1,-1 -0.3,-1.4 C 81.3,62.8 81,62.4 80.7,62.1 80.4,61.8 79.9,61.5 79.5,61.3 79,61.1 78.5,61 78,61 c -0.8,0 -1.4,0.2 -2,0.5 -0.5,0.3 -0.9,0.7 -1.2,1.1 -0.3,0.4 -0.5,0.8 -0.7,1.2 -0.1,0.4 -0.2,0.7 -0.2,0.8 l 7.9,0 z"
         id="path197"
         inkscape:connector-curvature="0"
         style="fill:#3f3f3f" /></g><g
       id="g199"><path
         class="st0"
         d="m 98.9,70.4 c 0,1.4 -0.2,2.5 -0.6,3.4 -0.4,0.9 -0.9,1.5 -1.5,2 -0.6,0.5 -1.3,0.8 -1.9,0.9 -0.7,0.2 -1.3,0.2 -1.9,0.2 -0.6,0 -1.1,-0.1 -1.7,-0.2 -0.5,-0.1 -1,-0.3 -1.5,-0.5 -0.5,-0.2 -0.9,-0.4 -1.3,-0.7 -0.4,-0.3 -0.7,-0.6 -1,-1 l 1.1,-1.1 c 0.5,0.7 1.2,1.3 1.9,1.6 0.8,0.3 1.6,0.5 2.5,0.5 0.7,0 1.4,-0.1 1.9,-0.3 0.5,-0.2 0.9,-0.4 1.3,-0.8 0.3,-0.3 0.6,-0.7 0.8,-1 0.2,-0.4 0.3,-0.8 0.4,-1.1 0.1,-0.4 0.1,-0.7 0.2,-1.1 0,-0.3 0,-0.6 0,-0.8 l 0,-1.5 0,0 c -0.4,0.7 -1,1.2 -1.7,1.6 -0.7,0.4 -1.6,0.6 -2.5,0.6 -0.8,0 -1.6,-0.1 -2.3,-0.4 -0.7,-0.3 -1.4,-0.7 -1.9,-1.2 -0.5,-0.5 -1,-1.1 -1.3,-1.8 -0.3,-0.7 -0.5,-1.4 -0.5,-2.2 0,-0.8 0.2,-1.5 0.5,-2.2 0.3,-0.7 0.7,-1.3 1.3,-1.8 0.5,-0.5 1.2,-0.9 1.9,-1.2 0.7,-0.3 1.5,-0.5 2.3,-0.5 1,0 1.8,0.2 2.5,0.6 0.7,0.4 1.3,0.9 1.7,1.6 l 0,0 0,-2 1.4,0 0,10.4 z m -1.4,-5 c 0,-0.6 -0.1,-1.2 -0.3,-1.7 -0.2,-0.5 -0.5,-1 -0.9,-1.4 -0.4,-0.4 -0.9,-0.7 -1.4,-0.9 -0.5,-0.2 -1.1,-0.3 -1.7,-0.3 -0.6,0 -1.2,0.1 -1.7,0.3 -0.5,0.2 -1,0.5 -1.4,0.9 -0.4,0.4 -0.7,0.9 -0.9,1.4 -0.2,0.5 -0.3,1.1 -0.3,1.7 0,0.6 0.1,1.2 0.3,1.7 0.2,0.5 0.5,1 0.9,1.4 0.4,0.4 0.9,0.7 1.4,0.9 0.5,0.2 1.1,0.3 1.7,0.3 0.6,0 1.2,-0.1 1.7,-0.3 0.5,-0.2 1,-0.5 1.4,-0.9 0.4,-0.4 0.7,-0.9 0.9,-1.4 0.2,-0.5 0.3,-1.1 0.3,-1.7 z"
         id="path201"
         inkscape:connector-curvature="0"
         style="fill:#3f3f3f" /></g><g
       id="g203"><path
         class="st0"
         d="m 113.1,68 c 0,0.2 0,0.5 0,0.8 0,0.3 0,0.6 0,0.9 0,0.3 0,0.6 0,0.9 0,0.3 0,0.5 0,0.6 l -1.4,0 c 0,-0.4 0,-0.8 0,-1.2 0,-0.4 0,-0.6 -0.1,-0.7 l -0.1,0 c -0.3,0.6 -0.8,1.1 -1.4,1.6 -0.7,0.4 -1.5,0.7 -2.4,0.7 -0.9,0 -1.6,-0.1 -2.1,-0.4 -0.6,-0.3 -1,-0.6 -1.3,-1.1 -0.3,-0.4 -0.5,-1 -0.6,-1.5 -0.1,-0.6 -0.2,-1.2 -0.2,-1.8 l 0,-6.8 1.4,0 0,6.6 c 0,0.5 0,0.9 0.1,1.3 0.1,0.4 0.2,0.8 0.4,1.1 0.2,0.3 0.5,0.6 0.8,0.8 0.4,0.2 0.8,0.3 1.4,0.3 0.5,0 1,-0.1 1.5,-0.3 0.5,-0.2 0.9,-0.5 1.2,-0.8 0.3,-0.4 0.6,-0.9 0.8,-1.4 0.2,-0.6 0.3,-1.2 0.3,-2 l 0,-5.6 1.4,0 0,8 z"
         id="path205"
         inkscape:connector-curvature="0"
         style="fill:#3f3f3f" /></g><g
       id="g207"><path
         class="st0"
         d="m 118.2,63.1 c 0,-0.2 0,-0.5 0,-0.8 0,-0.3 0,-0.6 0,-0.9 0,-0.3 0,-0.6 0,-0.9 0,-0.3 0,-0.5 0,-0.6 l 1.4,0 c 0,0.4 0,0.8 0,1.2 0,0.4 0,0.6 0.1,0.7 0.4,-0.7 0.8,-1.2 1.4,-1.6 0.6,-0.4 1.3,-0.6 2.1,-0.6 0.1,0 0.3,0 0.4,0 0.1,0 0.3,0.1 0.4,0.1 l -0.2,1.4 C 123.6,61 123.4,61 123.2,61 c -0.6,0 -1.2,0.1 -1.6,0.3 -0.5,0.2 -0.8,0.5 -1.1,0.8 -0.3,0.4 -0.5,0.8 -0.7,1.2 -0.1,0.5 -0.2,1 -0.2,1.5 l 0,6.1 -1.4,0 0,-7.8 z"
         id="path209"
         inkscape:connector-curvature="0"
         style="fill:#3f3f3f" /></g><g
       id="g211"><path
         class="st0"
         d="m 136.1,66.4 c 0,0.5 0,1 0,1.5 0,0.4 0,0.8 0,1.2 0,0.4 0,0.7 0.1,1 0,0.3 0.1,0.6 0.1,1 l -1.3,0 c -0.1,-0.5 -0.1,-1.1 -0.1,-1.8 l 0,0 c -0.4,0.7 -0.9,1.3 -1.6,1.6 -0.6,0.3 -1.4,0.5 -2.3,0.5 -0.5,0 -1,-0.1 -1.4,-0.2 -0.5,-0.1 -0.9,-0.3 -1.3,-0.6 -0.4,-0.3 -0.7,-0.6 -0.9,-1 -0.2,-0.4 -0.3,-0.9 -0.3,-1.5 0,-0.9 0.2,-1.5 0.7,-2 0.4,-0.5 1,-0.9 1.6,-1.1 0.6,-0.2 1.3,-0.4 2,-0.5 0.7,-0.1 1.3,-0.1 1.9,-0.1 l 1.7,0 0,-0.7 c 0,-1 -0.3,-1.7 -0.9,-2.1 -0.6,-0.4 -1.3,-0.6 -2.2,-0.6 -1.3,0 -2.4,0.4 -3.4,1.3 l -0.8,-1 c 0.5,-0.5 1.2,-0.9 2,-1.2 0.8,-0.3 1.5,-0.4 2.3,-0.4 1.3,0 2.4,0.3 3.2,1 0.8,0.6 1.2,1.7 1.2,3.1 l 0,2.6 z m -2.9,-0.9 c -0.6,0 -1.2,0 -1.8,0.1 -0.6,0.1 -1.1,0.2 -1.5,0.4 -0.5,0.2 -0.8,0.5 -1.1,0.8 -0.3,0.3 -0.4,0.7 -0.4,1.2 0,0.3 0.1,0.6 0.2,0.9 0.2,0.3 0.3,0.5 0.6,0.7 0.2,0.2 0.5,0.3 0.8,0.4 0.3,0.1 0.6,0.1 0.9,0.1 0.8,0 1.4,-0.1 1.9,-0.3 0.5,-0.2 0.9,-0.5 1.2,-0.9 0.3,-0.4 0.5,-0.8 0.6,-1.2 0.1,-0.5 0.2,-0.9 0.2,-1.4 l 0,-0.7 -1.6,0 z"
         id="path213"
         inkscape:connector-curvature="0"
         style="fill:#3f3f3f" /></g><g
       id="g215"><path
         class="st0"
         d="m 148.5,62.3 -3.2,0 0,3.9 c 0,0.3 0,0.6 0,0.9 0,0.3 0.1,0.5 0.2,0.7 0.1,0.2 0.3,0.3 0.5,0.4 0.2,0.1 0.5,0.2 0.9,0.2 0.2,0 0.4,0 0.8,-0.1 0.3,0 0.6,-0.1 0.7,-0.3 l 0,3 c -0.4,0.1 -0.8,0.2 -1.3,0.3 -0.4,0 -0.9,0.1 -1.3,0.1 -0.6,0 -1.2,-0.1 -1.7,-0.2 -0.5,-0.1 -1,-0.3 -1.3,-0.6 -0.4,-0.3 -0.7,-0.6 -0.9,-1.1 -0.2,-0.4 -0.3,-1 -0.3,-1.6 l 0,-5.6 -2.3,0 0,-2.9 2.3,0 0,-3.5 3.6,0 0,3.5 3.2,0 0,2.9 z"
         id="path217"
         inkscape:connector-curvature="0"
         style="fill:#3f3f3f" /></g><g
       id="g219"><path
         class="st0"
         d="m 162.6,69.1 c -0.6,0.7 -1.3,1.3 -2.2,1.7 -0.9,0.4 -1.8,0.6 -2.7,0.6 -0.9,0 -1.7,-0.1 -2.5,-0.4 -0.8,-0.3 -1.5,-0.7 -2.1,-1.2 -0.6,-0.5 -1,-1.2 -1.4,-1.9 -0.3,-0.8 -0.5,-1.6 -0.5,-2.5 0,-0.9 0.2,-1.8 0.5,-2.5 0.3,-0.8 0.8,-1.4 1.4,-1.9 0.6,-0.5 1.3,-1 2.1,-1.2 0.8,-0.3 1.6,-0.4 2.5,-0.4 0.8,0 1.6,0.1 2.3,0.4 0.7,0.3 1.3,0.7 1.7,1.2 0.5,0.5 0.8,1.2 1.1,1.9 0.3,0.8 0.4,1.6 0.4,2.5 l 0,1.1 -8.4,0 c 0.1,0.7 0.5,1.2 0.9,1.7 0.5,0.4 1.1,0.6 1.8,0.6 0.6,0 1.1,-0.1 1.5,-0.4 0.4,-0.3 0.8,-0.6 1.1,-1 l 2.5,1.7 z m -3,-5.2 c 0,-0.6 -0.2,-1.1 -0.6,-1.6 -0.4,-0.4 -1,-0.7 -1.6,-0.7 -0.4,0 -0.8,0.1 -1.1,0.2 -0.3,0.1 -0.6,0.3 -0.8,0.5 -0.2,0.2 -0.4,0.4 -0.5,0.7 -0.1,0.3 -0.2,0.5 -0.2,0.8 l 4.8,0 z"
         id="path221"
         inkscape:connector-curvature="0"
         style="fill:#3f3f3f" /></g><g
       id="g223"><path
         class="st0"
         d="m 174.5,63.2 c -0.2,-0.3 -0.4,-0.5 -0.7,-0.6 -0.3,-0.2 -0.7,-0.3 -1,-0.3 -0.9,0 -1.6,0.3 -2.1,0.8 -0.5,0.5 -0.8,1.3 -0.8,2.1 0,0.9 0.3,1.6 0.8,2.1 0.5,0.5 1.2,0.8 2.1,0.8 0.4,0 0.7,-0.1 1,-0.3 0.3,-0.2 0.5,-0.4 0.7,-0.6 l 2.4,2.5 c -0.6,0.6 -1.2,1 -2,1.2 -0.8,0.2 -1.5,0.3 -2.2,0.3 -0.9,0 -1.7,-0.1 -2.5,-0.4 -0.8,-0.3 -1.5,-0.7 -2.1,-1.2 -0.6,-0.5 -1,-1.2 -1.4,-1.9 -0.3,-0.8 -0.5,-1.6 -0.5,-2.5 0,-0.9 0.2,-1.8 0.5,-2.5 0.3,-0.8 0.8,-1.4 1.4,-1.9 0.6,-0.5 1.3,-1 2.1,-1.2 0.8,-0.3 1.6,-0.4 2.5,-0.4 0.7,0 1.4,0.1 2.2,0.3 0.8,0.2 1.4,0.6 2,1.2 l -2.4,2.5 z"
         id="path225"
         inkscape:connector-curvature="0"
         style="fill:#3f3f3f" /></g></g><g
     id="g227"
     transform="translate(-46.6,-38.6)"><g
       id="g229"><g
         id="g231"><path
           class="st80"
           d="m 145.4,51.3 c 0,0 9.7,-2.2 12,-11.7"
           id="path233"
           inkscape:connector-curvature="0"
           style="fill:#b7209a" /></g><g
         id="g235"><path
           class="st80"
           d="m 169.3,51.3 c 0,0 -9.7,-2.2 -12,-11.7"
           id="path237"
           inkscape:connector-curvature="0"
           style="fill:#b7209a" /></g></g><g
       id="g239"><g
         id="g241"><path
           class="st80"
           d="m 147.6,54 c 0,0 7.9,-1.8 9.7,-9.6"
           id="path243"
           inkscape:connector-curvature="0"
           style="fill:#b7209a" /></g><g
         id="g245"><path
           class="st80"
           d="m 167,54 c 0,0 -7.9,-1.8 -9.7,-9.6"
           id="path247"
           inkscape:connector-curvature="0"
           style="fill:#b7209a" /></g></g><g
       id="g249"><g
         id="g251"><path
           class="st80"
           d="m 149.8,56.2 c 0,0 6.1,-1.4 7.5,-7.4"
           id="path253"
           inkscape:connector-curvature="0"
           style="fill:#b7209a" /></g><g
         id="g255"><path
           class="st80"
           d="m 164.8,56.2 c 0,0 -6.1,-1.4 -7.5,-7.4"
           id="path257"
           inkscape:connector-curvature="0"
           style="fill:#b7209a" /></g></g></g></svg>